<mxfile host="app.diagrams.net" modified="2023-11-16T13:04:25.812Z" agent="Mozilla/5.0 (Windows NT 10.0; Win64; x64) AppleWebKit/537.36 (KHTML, like Gecko) Chrome/116.0.5845.837 YaBrowser/23.9.4.837 Yowser/2.5 Safari/537.36" etag="JGcaiKcDMfxD7854ivwf" version="22.1.2" type="device">
  <diagram name="Страница — 1" id="Yshu63ttetc6DEyUZYxv">
    <mxGraphModel dx="1173" dy="698" grid="0" gridSize="10" guides="1" tooltips="1" connect="1" arrows="1" fold="1" page="1" pageScale="1" pageWidth="827" pageHeight="1169" math="0" shadow="0">
      <root>
        <mxCell id="0" />
        <mxCell id="1" parent="0" />
        <mxCell id="zjLsCPjoBzyfAbeuNvC6-5" value="" style="ellipse;html=1;shape=startState;fillColor=#000000;strokeColor=#ff0000;" vertex="1" parent="1">
          <mxGeometry x="360" y="70" width="30" height="30" as="geometry" />
        </mxCell>
        <mxCell id="zjLsCPjoBzyfAbeuNvC6-6" value="" style="edgeStyle=orthogonalEdgeStyle;html=1;verticalAlign=bottom;endArrow=open;endSize=8;strokeColor=#ff0000;rounded=0;" edge="1" source="zjLsCPjoBzyfAbeuNvC6-5" parent="1">
          <mxGeometry relative="1" as="geometry">
            <mxPoint x="375" y="160" as="targetPoint" />
          </mxGeometry>
        </mxCell>
        <mxCell id="zjLsCPjoBzyfAbeuNvC6-9" style="edgeStyle=orthogonalEdgeStyle;rounded=0;orthogonalLoop=1;jettySize=auto;html=1;" edge="1" parent="1" source="zjLsCPjoBzyfAbeuNvC6-8">
          <mxGeometry relative="1" as="geometry">
            <mxPoint x="375" y="280" as="targetPoint" />
          </mxGeometry>
        </mxCell>
        <mxCell id="zjLsCPjoBzyfAbeuNvC6-8" value="" style="rhombus;whiteSpace=wrap;html=1;" vertex="1" parent="1">
          <mxGeometry x="335" y="160" width="80" height="80" as="geometry" />
        </mxCell>
        <mxCell id="zjLsCPjoBzyfAbeuNvC6-10" value="" style="endArrow=none;html=1;rounded=0;strokeWidth=4;" edge="1" parent="1">
          <mxGeometry width="50" height="50" relative="1" as="geometry">
            <mxPoint x="200" y="280" as="sourcePoint" />
            <mxPoint x="560" y="280" as="targetPoint" />
          </mxGeometry>
        </mxCell>
        <mxCell id="zjLsCPjoBzyfAbeuNvC6-12" value="" style="endArrow=classic;html=1;rounded=0;" edge="1" parent="1">
          <mxGeometry width="50" height="50" relative="1" as="geometry">
            <mxPoint x="374.5" y="280" as="sourcePoint" />
            <mxPoint x="374.5" y="340" as="targetPoint" />
          </mxGeometry>
        </mxCell>
        <mxCell id="zjLsCPjoBzyfAbeuNvC6-13" value="Просмотр сайта" style="rounded=0;whiteSpace=wrap;html=1;" vertex="1" parent="1">
          <mxGeometry x="315" y="340" width="120" height="60" as="geometry" />
        </mxCell>
        <mxCell id="zjLsCPjoBzyfAbeuNvC6-14" value="" style="endArrow=classic;html=1;rounded=0;" edge="1" parent="1">
          <mxGeometry width="50" height="50" relative="1" as="geometry">
            <mxPoint x="374" y="400" as="sourcePoint" />
            <mxPoint x="374" y="470" as="targetPoint" />
          </mxGeometry>
        </mxCell>
        <mxCell id="zjLsCPjoBzyfAbeuNvC6-15" value="" style="endArrow=none;html=1;rounded=0;strokeWidth=4;" edge="1" parent="1">
          <mxGeometry width="50" height="50" relative="1" as="geometry">
            <mxPoint x="220" y="470" as="sourcePoint" />
            <mxPoint x="530" y="470" as="targetPoint" />
          </mxGeometry>
        </mxCell>
        <mxCell id="zjLsCPjoBzyfAbeuNvC6-16" value="" style="endArrow=classic;html=1;rounded=0;" edge="1" parent="1">
          <mxGeometry width="50" height="50" relative="1" as="geometry">
            <mxPoint x="306.79" y="470" as="sourcePoint" />
            <mxPoint x="306.79" y="560" as="targetPoint" />
          </mxGeometry>
        </mxCell>
        <mxCell id="zjLsCPjoBzyfAbeuNvC6-17" value="" style="endArrow=classic;html=1;rounded=0;" edge="1" parent="1">
          <mxGeometry width="50" height="50" relative="1" as="geometry">
            <mxPoint x="374.5" y="470" as="sourcePoint" />
            <mxPoint x="374.5" y="520" as="targetPoint" />
          </mxGeometry>
        </mxCell>
        <mxCell id="zjLsCPjoBzyfAbeuNvC6-18" value="" style="endArrow=classic;html=1;rounded=0;" edge="1" parent="1">
          <mxGeometry width="50" height="50" relative="1" as="geometry">
            <mxPoint x="450" y="470" as="sourcePoint" />
            <mxPoint x="450" y="560" as="targetPoint" />
          </mxGeometry>
        </mxCell>
        <mxCell id="zjLsCPjoBzyfAbeuNvC6-19" value="Скачивание данных" style="rounded=0;whiteSpace=wrap;html=1;" vertex="1" parent="1">
          <mxGeometry x="255" y="560" width="105" height="40" as="geometry" />
        </mxCell>
        <mxCell id="zjLsCPjoBzyfAbeuNvC6-20" value="Просмотр информации" style="rounded=0;whiteSpace=wrap;html=1;" vertex="1" parent="1">
          <mxGeometry x="326.25" y="520" width="103.75" height="30" as="geometry" />
        </mxCell>
        <mxCell id="zjLsCPjoBzyfAbeuNvC6-21" value="Прохождение теста" style="rounded=0;whiteSpace=wrap;html=1;" vertex="1" parent="1">
          <mxGeometry x="400" y="560" width="105" height="40" as="geometry" />
        </mxCell>
        <mxCell id="zjLsCPjoBzyfAbeuNvC6-23" value="" style="endArrow=none;html=1;rounded=0;strokeWidth=4;" edge="1" parent="1">
          <mxGeometry width="50" height="50" relative="1" as="geometry">
            <mxPoint x="240" y="640" as="sourcePoint" />
            <mxPoint x="510" y="640" as="targetPoint" />
          </mxGeometry>
        </mxCell>
        <mxCell id="zjLsCPjoBzyfAbeuNvC6-24" value="" style="endArrow=classic;html=1;rounded=0;" edge="1" parent="1">
          <mxGeometry width="50" height="50" relative="1" as="geometry">
            <mxPoint x="426.79" y="600" as="sourcePoint" />
            <mxPoint x="427" y="640" as="targetPoint" />
          </mxGeometry>
        </mxCell>
        <mxCell id="zjLsCPjoBzyfAbeuNvC6-26" value="" style="endArrow=classic;html=1;rounded=0;" edge="1" parent="1">
          <mxGeometry width="50" height="50" relative="1" as="geometry">
            <mxPoint x="451.79" y="600" as="sourcePoint" />
            <mxPoint x="452" y="640" as="targetPoint" />
          </mxGeometry>
        </mxCell>
        <mxCell id="zjLsCPjoBzyfAbeuNvC6-27" value="" style="endArrow=classic;html=1;rounded=0;" edge="1" parent="1">
          <mxGeometry width="50" height="50" relative="1" as="geometry">
            <mxPoint x="374.29" y="550" as="sourcePoint" />
            <mxPoint x="374" y="640" as="targetPoint" />
          </mxGeometry>
        </mxCell>
        <mxCell id="zjLsCPjoBzyfAbeuNvC6-28" value="" style="endArrow=classic;html=1;rounded=0;" edge="1" parent="1">
          <mxGeometry width="50" height="50" relative="1" as="geometry">
            <mxPoint x="374" y="640" as="sourcePoint" />
            <mxPoint x="374" y="680" as="targetPoint" />
          </mxGeometry>
        </mxCell>
        <mxCell id="zjLsCPjoBzyfAbeuNvC6-31" value="" style="ellipse;html=1;shape=endState;fillColor=#000000;strokeColor=#ff0000;" vertex="1" parent="1">
          <mxGeometry x="360" y="680" width="30" height="30" as="geometry" />
        </mxCell>
      </root>
    </mxGraphModel>
  </diagram>
</mxfile>
